<?xml version="1.0" encoding="iso-8859-1"?>
<!-- Uploaded to: SVG Repo, www.svgrepo.com, Generator: SVG Repo Mixer Tools -->
<!DOCTYPE svg PUBLIC "-//W3C//DTD SVG 1.1//EN" "http://www.w3.org/Graphics/SVG/1.1/DTD/svg11.dtd">
<svg fill="#000000" height="800px" width="800px" version="1.1" id="Capa_1" xmlns="http://www.w3.org/2000/svg" xmlns:xlink="http://www.w3.org/1999/xlink" 
	 viewBox="0 0 58 58" xml:space="preserve">
<g>
	<path d="M27.707,44.293c-0.391-0.391-1.023-0.391-1.414,0s-0.391,1.023,0,1.414L30.586,50h-0.396c-0.553,0-1,0.447-1,1s0.447,1,1,1
		h0.396l-4.293,4.293c-0.391,0.391-0.391,1.023,0,1.414C26.488,57.902,26.744,58,27,58s0.512-0.098,0.707-0.293l6-6
		c0.391-0.391,0.391-1.023,0-1.414L27.707,44.293z"/>
	<path d="M14,20c0-0.553-0.447-1-1-1s-1,0.447-1,1v2c0,0.553,0.447,1,1,1s1-0.447,1-1V20z"/>
	<path d="M13,31c-0.553,0-1,0.447-1,1v3c0,0.553,0.447,1,1,1s1-0.447,1-1v-3C14,31.447,13.553,31,13,31z"/>
	<path d="M14,26c0-0.553-0.447-1-1-1s-1,0.447-1,1v2c0,0.553,0.447,1,1,1s1-0.447,1-1V26z"/>
	<path d="M12,16c0,0.553,0.447,1,1,1s1-0.447,1-1v-2.08c3.386-0.488,6-3.401,6-6.92c0-3.859-3.141-7-7-7S6,3.141,6,7
		c0,3.519,2.614,6.432,6,6.92V16z M8,7c0-2.757,2.243-5,5-5s5,2.243,5,5s-2.243,5-5,5S8,9.757,8,7z"/>
	<path d="M14,41v-2c0-0.553-0.447-1-1-1s-1,0.447-1,1v2c0,0.553,0.447,1,1,1S14,41.553,14,41z"/>
	<path d="M27.189,51c0-0.553-0.447-1-1-1h-2c-0.553,0-1,0.447-1,1s0.447,1,1,1h2C26.742,52,27.189,51.553,27.189,51z"/>
	<path d="M14.644,44.529c-0.209-0.512-0.791-0.756-1.304-0.55c-0.512,0.208-0.758,0.792-0.55,1.304
		c0.275,0.677,0.623,1.33,1.033,1.942c0.193,0.288,0.51,0.443,0.832,0.443c0.191,0,0.385-0.055,0.556-0.169
		c0.459-0.308,0.581-0.929,0.274-1.388C15.15,45.613,14.867,45.08,14.644,44.529z"/>
	<path d="M20.481,49.698c-0.868-0.234-1.692-0.601-2.449-1.089c-0.466-0.297-1.083-0.164-1.383,0.299
		c-0.299,0.465-0.165,1.083,0.299,1.383c0.932,0.6,1.944,1.05,3.012,1.339c0.087,0.023,0.175,0.034,0.262,0.034
		c0.44,0,0.844-0.293,0.965-0.739C21.33,50.392,21.015,49.843,20.481,49.698z"/>
	<path d="M46,44.08V43.5c0-0.553-0.447-1-1-1s-1,0.447-1,1v0.58c-3.386,0.488-6,3.401-6,6.92c0,3.859,3.141,7,7,7s7-3.141,7-7
		C52,47.481,49.386,44.568,46,44.08z M45,56c-2.757,0-5-2.243-5-5s2.243-5,5-5s5,2.243,5,5S47.757,56,45,56z"/>
	<path d="M24.077,7.382c0.051,0.123,0.124,0.234,0.217,0.326l5.999,5.999C30.488,13.902,30.744,14,31,14s0.512-0.098,0.707-0.293
		c0.391-0.391,0.391-1.023,0-1.414l-4.551-4.551C27.363,7.559,27.5,7.299,27.5,7s-0.137-0.559-0.344-0.742l4.551-4.551
		c0.391-0.391,0.391-1.023,0-1.414s-1.023-0.391-1.414,0l-5.999,5.999c-0.093,0.092-0.166,0.203-0.217,0.326
		C23.976,6.862,23.976,7.138,24.077,7.382z"/>
	<path d="M46,32.211c0-0.553-0.447-1-1-1s-1,0.447-1,1v1.882c0,0.553,0.447,1,1,1s1-0.447,1-1V32.211z"/>
	<path d="M45,36.855c-0.553,0-1,0.447-1,1v1.882c0,0.553,0.447,1,1,1s1-0.447,1-1v-1.882C46,37.303,45.553,36.855,45,36.855z"/>
	<path d="M46,25.626c0-0.553-0.447-1-1-1s-1,0.447-1,1v2.822c0,0.553,0.447,1,1,1s1-0.447,1-1V25.626z"/>
	<path d="M46,19.981c0-0.553-0.447-1-1-1s-1,0.447-1,1v1.882c0,0.553,0.447,1,1,1s1-0.447,1-1V19.981z"/>
	<path d="M38.735,7.593c0.144-0.533-0.173-1.081-0.707-1.225c-0.664-0.179-1.351-0.294-2.04-0.342
		c-0.547-0.042-1.028,0.376-1.067,0.927s0.376,1.029,0.927,1.067c0.562,0.04,1.121,0.134,1.663,0.279
		c0.086,0.023,0.174,0.034,0.26,0.034C38.212,8.334,38.615,8.04,38.735,7.593z"/>
	<path d="M29.273,7c0,0.553,0.447,1,1,1h1.882c0.553,0,1-0.447,1-1s-0.447-1-1-1h-1.882C29.721,6,29.273,6.447,29.273,7z"/>
	<path d="M43.73,14.607c0.138,0.544,0.224,1.104,0.256,1.668c0.03,0.532,0.471,0.943,0.997,0.943c0.02,0,0.038-0.001,0.058-0.002
		c0.552-0.031,0.973-0.503,0.941-1.055c-0.039-0.69-0.145-1.378-0.313-2.045c-0.136-0.535-0.678-0.858-1.215-0.725
		C43.92,13.528,43.596,14.072,43.73,14.607z"/>
	<path d="M42.295,11.575c0.196,0.267,0.499,0.407,0.807,0.407c0.206,0,0.413-0.063,0.592-0.194c0.445-0.328,0.54-0.954,0.213-1.398
		c-0.616-0.836-1.348-1.578-2.177-2.206c-0.442-0.334-1.068-0.247-1.4,0.193c-0.334,0.439-0.247,1.067,0.193,1.4
		C41.197,10.289,41.794,10.894,42.295,11.575z"/>
</g>
</svg>