<!DOCTYPE svg PUBLIC "-//W3C//DTD SVG 1.1//EN" "http://www.w3.org/Graphics/SVG/1.1/DTD/svg11.dtd">
<!-- Uploaded to: SVG Repo, www.svgrepo.com, Transformed by: SVG Repo Mixer Tools -->
<svg fill="#43e000" width="64px" height="64px" viewBox="0 0 32.00 32.00" version="1.1" xmlns="http://www.w3.org/2000/svg" stroke="#43e000" stroke-width="0.48">
<g id="SVGRepo_bgCarrier" stroke-width="0"/>
<g id="SVGRepo_tracerCarrier" stroke-linecap="round" stroke-linejoin="round" stroke="#CCCCCC" stroke-width="0.704"> <title>zero</title> <path d="M9 2c6.406 0 7.969 7 7.969 12.063s-1.563 12.063-7.969 12.063-7.719-7.063-7.719-12.063 1.281-12.063 7.719-12.063zM9.094 24.063c4.906 0 5.719-6.281 5.719-9.969 0-3.656-0.813-9.938-5.719-9.938-5.063 0-5.625 6.25-5.625 9.938s0.563 9.969 5.625 9.969z"/> </g>
<g id="SVGRepo_iconCarrier"> <title>zero</title> <path d="M9 2c6.406 0 7.969 7 7.969 12.063s-1.563 12.063-7.969 12.063-7.719-7.063-7.719-12.063 1.281-12.063 7.719-12.063zM9.094 24.063c4.906 0 5.719-6.281 5.719-9.969 0-3.656-0.813-9.938-5.719-9.938-5.063 0-5.625 6.25-5.625 9.938s0.563 9.969 5.625 9.969z"/> </g>
</svg>